PathFileType	4	(X/Y/Z)	/home/nbianco/projects/addbio/data/HamnerRunning2013/Processed/subject08//results/MarkerData/run300.trc
DataRate	CameraRate	NumFrames	NumMarkers	Units	OrigDataRate	OrigDataStartFrame	OrigNumFrames
100	100	9	42	m	100	100	200
Frame#	Time	C7			CLAV			LACR			LASI			LCAL			LFAradius			LFAsuperior			LFAulna			LLEL			LMEL			LMT5			LPSI			LTB1			LTB2			LTB3			LTH1			LTH2			LTH3			LTOE			LUA1			LUA2			LUA3			RACR			RASI			RCAL			RFAradius			RFAsuperior			RFAulna			RLEL			RMEL			RMT5			RPSI			RTB1			RTB2			RTB3			RTH1			RTH2			RTH3			RTOE			RUA1			RUA2			RUA3		
		X1	Y1	Z1	X2	Y2	Z2	X3	Y3	Z3	X4	Y4	Z4	X5	Y5	Z5	X6	Y6	Z6	X7	Y7	Z7	X8	Y8	Z8	X9	Y9	Z9	X10	Y10	Z10	X11	Y11	Z11	X12	Y12	Z12	X13	Y13	Z13	X14	Y14	Z14	X15	Y15	Z15	X16	Y16	Z16	X17	Y17	Z17	X18	Y18	Z18	X19	Y19	Z19	X20	Y20	Z20	X21	Y21	Z21	X22	Y22	Z22	X23	Y23	Z23	X24	Y24	Z24	X25	Y25	Z25	X26	Y26	Z26	X27	Y27	Z27	X28	Y28	Z28	X29	Y29	Z29	X30	Y30	Z30	X31	Y31	Z31	X32	Y32	Z32	X33	Y33	Z33	X34	Y34	Z34	X35	Y35	Z35	X36	Y36	Z36	X37	Y37	Z37	X38	Y38	Z38	X39	Y39	Z39	X40	Y40	Z40	X41	Y41	Z41	X42	Y42	Z42

101	1.43	0.642751	1.60443	-0.326286	0.780207	1.53078	-0.303718	0.69029	1.5858	-0.482293	0.735963	1.05731	-0.45101	0.754838	0.123477	-0.351886	0.653901	1.18595	-0.545121	0.550766	1.26126	-0.641299	0.60465	1.14468	-0.565498	0.487189	1.36804	-0.665324	0.435759	1.35676	-0.606511	0.954977	0.0787495	-0.436524	0.558092	1.13088	-0.362416	0.846745	0.484254	-0.403992	0.796873	0.396833	-0.46232	0.85955	0.279419	-0.387816	0.686969	0.939926	-0.513817	0.781492	0.84157	-0.489333	0.741205	0.691441	-0.471942	0.983944	0.129477	-0.365534	0.60141	1.52726	-0.574628	0.515412	1.47725	-0.551659	0.528941	1.44251	-0.623873	0.714281	1.56058	-0.149037	0.742353	1.03893	-0.20445	0.15368	0.39909	-0.279007	0.829105	1.14688	-0.120904	0.658095	1.19895	-0.0180589	0.795369	1.08986	-0.0926245	0.598612	1.25418	-0.00544742	0.558217	1.23753	-0.0767512	0.168869	0.186197	-0.205019	0.563405	1.12955	-0.276809	0.495594	0.444583	-0.241596	0.385649	0.427262	-0.194413	0.319391	0.349042	-0.253516	0.662308	0.904279	-0.148261	0.685631	0.759912	-0.173351	0.587139	0.6736	-0.18308	0.223502	0.176193	-0.282866	0.658632	1.45628	-0.0654683	0.577371	1.39031	-0.0842118	0.61734	1.34824	-0.0321234
102	1.44	0.641977	1.59957	-0.328681	0.779325	1.52539	-0.305102	0.690033	1.57959	-0.484616	0.734963	1.05014	-0.452568	0.750719	0.119539	-0.346022	0.660757	1.17963	-0.544701	0.557387	1.25189	-0.643006	0.612756	1.1373	-0.565722	0.492284	1.35736	-0.669036	0.440137	1.34541	-0.610654	0.947339	0.0689498	-0.43572	0.557097	1.12405	-0.362658	0.841836	0.477906	-0.402889	0.791072	0.390089	-0.459783	0.855433	0.27317	-0.386306	0.685325	0.933804	-0.514505	0.778459	0.834582	-0.490315	0.736993	0.685183	-0.471163	0.979399	0.119747	-0.365788	0.602588	1.51896	-0.577847	0.517029	1.46783	-0.555722	0.532298	1.43235	-0.627425	0.712803	1.55596	-0.150699	0.743036	1.03517	-0.205631	0.158834	0.416986	-0.278296	0.823127	1.13663	-0.119158	0.652023	1.19365	-0.0187528	0.787332	1.08066	-0.0913745	0.593851	1.25037	-0.00735475	0.553819	1.23432	-0.0788321	0.164393	0.204564	-0.201383	0.56211	1.12292	-0.276945	0.503612	0.442077	-0.239823	0.392339	0.432393	-0.193311	0.321968	0.357801	-0.252109	0.666735	0.898856	-0.148087	0.693601	0.755006	-0.172079	0.598069	0.666199	-0.181984	0.218133	0.191002	-0.279634	0.656112	1.45202	-0.0670689	0.574408	1.38679	-0.0861485	0.613965	1.34419	-0.033969
103	1.45	0.641023	1.5937	-0.331256	0.778242	1.51901	-0.306418	0.689653	1.57225	-0.486896	0.733788	1.04193	-0.4538	0.741287	0.116131	-0.34178	0.66875	1.17255	-0.543977	0.565201	1.24113	-0.644817	0.622264	1.12907	-0.565844	0.498436	1.34504	-0.673103	0.445641	1.3323	-0.615343	0.934597	0.0583263	-0.433249	0.555934	1.11619	-0.362582	0.836579	0.469991	-0.402281	0.784407	0.382325	-0.458223	0.848457	0.265175	-0.384926	0.683533	0.926908	-0.514808	0.776544	0.827993	-0.491428	0.7334	0.678336	-0.470152	0.96964	0.107116	-0.363285	0.604189	1.50921	-0.58128	0.519127	1.45684	-0.560498	0.536681	1.42047	-0.631482	0.710787	1.5502	-0.152436	0.74342	1.0304	-0.206437	0.166677	0.433461	-0.276609	0.816464	1.12478	-0.116728	0.645413	1.18737	-0.0193208	0.778347	1.07002	-0.0896664	0.588583	1.24561	-0.0092896	0.549022	1.23009	-0.0810137	0.164161	0.221493	-0.198341	0.560891	1.11522	-0.276787	0.513294	0.43912	-0.237497	0.401095	0.43688	-0.1917	0.327178	0.36581	-0.250507	0.670272	0.892936	-0.147529	0.701846	0.749326	-0.170193	0.609523	0.658027	-0.180301	0.21633	0.205208	-0.277298	0.652974	1.44688	-0.0687925	0.571102	1.3822	-0.0883178	0.61007	1.33905	-0.0358704
104	1.46	0.639927	1.58676	-0.333896	0.776974	1.51172	-0.307685	0.689197	1.5639	-0.489133	0.732451	1.03289	-0.454711	0.724792	0.11211	-0.338236	0.677833	1.16502	-0.543003	0.574197	1.2293	-0.646643	0.63314	1.12027	-0.565828	0.505642	1.33139	-0.677276	0.452358	1.31764	-0.620328	0.915792	0.0501875	-0.430446	0.554621	1.10748	-0.36219	0.830934	0.460467	-0.40159	0.776962	0.37355	-0.45718	0.837407	0.255493	-0.38248	0.681661	0.918982	-0.514435	0.775321	0.821397	-0.491971	0.730604	0.67067	-0.469475	0.953546	0.0937082	-0.358535	0.60621	1.49809	-0.584802	0.521697	1.44447	-0.565844	0.541965	1.4072	-0.635902	0.708239	1.54343	-0.154155	0.743565	1.0246	-0.206981	0.177165	0.448225	-0.274326	0.808998	1.11155	-0.113462	0.638159	1.18009	-0.0198057	0.76845	1.05814	-0.0875607	0.582814	1.24	-0.0112032	0.543852	1.22494	-0.0832346	0.167505	0.236481	-0.196153	0.559851	1.1064	-0.276447	0.52455	0.435635	-0.234735	0.411961	0.44029	-0.189614	0.334853	0.372813	-0.24865	0.673403	0.886289	-0.146795	0.710254	0.742963	-0.16798	0.621381	0.649175	-0.1782	0.218191	0.218325	-0.275728	0.649319	1.4409	-0.0706104	0.567399	1.37652	-0.0907968	0.605698	1.33292	-0.0379059
105	1.47	0.638702	1.57865	-0.336424	0.775666	1.50361	-0.308821	0.688786	1.5547	-0.491407	0.730704	1.02313	-0.455449	0.700237	0.105964	-0.334189	0.68795	1.1573	-0.541894	0.584409	1.21679	-0.648394	0.645283	1.11116	-0.56564	0.513916	1.31672	-0.681418	0.46026	1.30175	-0.625375	0.890744	0.0465214	-0.428624	0.552896	1.09807	-0.361619	0.824348	0.449634	-0.399879	0.768208	0.364145	-0.455648	0.820991	0.244691	-0.377919	0.679784	0.909929	-0.513555	0.774055	0.814045	-0.491405	0.728751	0.662213	-0.469604	0.930536	0.0826481	-0.353336	0.60863	1.48572	-0.588366	0.524773	1.43082	-0.571553	0.547939	1.39288	-0.640523	0.705259	1.53592	-0.15573	0.743481	1.01782	-0.207412	0.190069	0.460973	-0.271811	0.80064	1.09718	-0.109353	0.630246	1.17191	-0.0202302	0.757675	1.04524	-0.0850981	0.576592	1.23365	-0.0131448	0.538387	1.219	-0.0854809	0.174116	0.249265	-0.194751	0.558484	1.09633	-0.276067	0.53735	0.431611	-0.231739	0.424904	0.442326	-0.187225	0.344898	0.378606	-0.246583	0.67679	0.878572	-0.146071	0.718773	0.736126	-0.165606	0.63368	0.639723	-0.175924	0.223731	0.229969	-0.274572	0.645255	1.43399	-0.0725699	0.56327	1.36979	-0.0935923	0.600853	1.32592	-0.0401198
106	1.48	0.637267	1.56935	-0.338718	0.774556	1.49486	-0.309609	0.688566	1.54494	-0.493851	0.728288	1.01301	-0.456212	0.669289	0.0976711	-0.32926	0.699012	1.1496	-0.540697	0.595879	1.20401	-0.649977	0.658519	1.10194	-0.565215	0.523253	1.30129	-0.685505	0.469255	1.285	-0.630364	0.861119	0.0466881	-0.427881	0.550485	1.08831	-0.361055	0.816031	0.438203	-0.396509	0.757361	0.354778	-0.452794	0.79948	0.233844	-0.371284	0.677762	0.900177	-0.512783	0.772019	0.805242	-0.490092	0.727051	0.653218	-0.470187	0.902035	0.0759461	-0.349329	0.611493	1.47226	-0.592012	0.528469	1.41599	-0.577438	0.554497	1.37777	-0.645186	0.702023	1.52792	-0.157097	0.74305	1.0101	-0.207985	0.205109	0.471442	-0.269112	0.791387	1.08185	-0.10468	0.621776	1.16304	-0.0205926	0.746064	1.03151	-0.082263	0.569993	1.2267	-0.0151991	0.532732	1.2124	-0.0878006	0.184105	0.259654	-0.193833	0.556249	1.08541	-0.275752	0.551755	0.427267	-0.228914	0.439856	0.442928	-0.184775	0.357355	0.383063	-0.244522	0.680757	0.86983	-0.145478	0.72747	0.729194	-0.1633	0.64657	0.629926	-0.173693	0.232855	0.239806	-0.273588	0.640851	1.42619	-0.0746981	0.558797	1.36217	-0.0966077	0.595506	1.31822	-0.042447
107	1.49	0.635564	1.55927	-0.340831	0.773811	1.48573	-0.309865	0.688633	1.53504	-0.496542	0.725405	1.0033	-0.457208	0.635969	0.089415	-0.324033	0.710915	1.1422	-0.539283	0.608617	1.19136	-0.651252	0.672691	1.09286	-0.564405	0.533667	1.28542	-0.689518	0.479303	1.26781	-0.635244	0.829778	0.0484106	-0.427291	0.547599	1.07896	-0.360719	0.805652	0.427121	-0.391632	0.744145	0.346111	-0.448557	0.775192	0.224129	-0.363719	0.675214	0.89069	-0.512691	0.768683	0.79495	-0.489002	0.723845	0.644104	-0.470162	0.871253	0.0731166	-0.346865	0.614964	1.45812	-0.59575	0.532931	1.40036	-0.583387	0.561755	1.36218	-0.649712	0.698739	1.51963	-0.158295	0.742104	1.00148	-0.209062	0.222001	0.479433	-0.266034	0.781315	1.06582	-0.0998678	0.612849	1.15382	-0.0209137	0.733676	1.01724	-0.0789838	0.563093	1.21933	-0.0174212	0.526975	1.20534	-0.0902686	0.197562	0.267436	-0.192931	0.553322	1.07471	-0.27565	0.567857	0.423063	-0.226792	0.456736	0.44227	-0.182485	0.372237	0.386166	-0.2427	0.685143	0.86079	-0.145121	0.736487	0.72272	-0.161432	0.660208	0.620389	-0.171643	0.245372	0.247513	-0.27271	0.636218	1.41777	-0.0769208	0.554179	1.35401	-0.0996753	0.589715	1.31013	-0.0447671
108	1.5	0.633761	1.54927	-0.342953	0.773385	1.4766	-0.309675	0.688974	1.52547	-0.499356	0.722693	0.994968	-0.458582	0.604021	0.0839419	-0.319316	0.723578	1.13539	-0.537369	0.622579	1.17923	-0.652002	0.68778	1.08423	-0.562952	0.545231	1.26955	-0.693304	0.490477	1.25066	-0.639881	0.798998	0.0497919	-0.426019	0.544908	1.07095	-0.360797	0.793676	0.41718	-0.386142	0.729138	0.338609	-0.443674	0.750965	0.216298	-0.356649	0.671779	0.882466	-0.513264	0.763875	0.784191	-0.488587	0.717964	0.63545	-0.468772	0.84112	0.0720487	-0.345173	0.61919	1.44406	-0.59939	0.538194	1.38454	-0.589224	0.569903	1.34663	-0.653863	0.695613	1.51135	-0.159441	0.740584	0.992112	-0.210776	0.240345	0.484786	-0.262389	0.770519	1.04948	-0.0952007	0.603528	1.14458	-0.0212667	0.720594	1.00286	-0.0751842	0.555959	1.21183	-0.0198228	0.521191	1.19808	-0.0929344	0.214282	0.272346	-0.191624	0.55052	1.06541	-0.275928	0.585658	0.419542	-0.225801	0.475414	0.440676	-0.180508	0.389319	0.388032	-0.241186	0.689505	0.852599	-0.145084	0.745889	0.717358	-0.160359	0.674678	0.612017	-0.169841	0.261054	0.252815	-0.271938	0.631617	1.40929	-0.0790961	0.54965	1.34584	-0.102656	0.583693	1.3021	-0.0470329
109	1.51	0.632281	1.54046	-0.345217	0.773049	1.46793	-0.309406	0.689515	1.51669	-0.502007	0.720562	0.988632	-0.460282	0.574574	0.0822698	-0.315553	0.736947	1.12958	-0.534654	0.637648	1.16795	-0.651964	0.703885	1.07656	-0.560572	0.558007	1.25423	-0.696564	0.502863	1.23408	-0.644002	0.769338	0.0503109	-0.424099	0.542839	1.06491	-0.361246	0.780872	0.408726	-0.381205	0.713254	0.332554	-0.43926	0.728087	0.210492	-0.351089	0.667369	0.87599	-0.513887	0.757925	0.77473	-0.488264	0.709928	0.62791	-0.46644	0.81245	0.0710342	-0.343456	0.624056	1.43103	-0.60253	0.544083	1.36916	-0.594466	0.57894	1.33186	-0.657357	0.692814	1.50354	-0.16065	0.738597	0.982499	-0.212666	0.259559	0.48734	-0.258173	0.759041	1.03343	-0.0906937	0.59394	1.13578	-0.0217387	0.70691	0.988992	-0.0708602	0.548693	1.20465	-0.0223883	0.515474	1.19107	-0.0958044	0.233947	0.274104	-0.189795	0.548387	1.05808	-0.27657	0.604997	0.417161	-0.226075	0.495638	0.43852	-0.17895	0.40815	0.388818	-0.239883	0.693373	0.846171	-0.145361	0.755557	0.713739	-0.160241	0.689947	0.605713	-0.168349	0.279717	0.255526	-0.27122	0.627386	1.40142	-0.0811195	0.545368	1.33831	-0.105531	0.57772	1.29471	-0.0493258
